<svg width="86" height="34" viewBox="0 0 86 34" fill="none" xmlns="http://www.w3.org/2000/svg">
<path d="M5.73863 7.43625C4.65065 7.44294 3.77403 7.12833 3.10877 6.49241C2.44351 5.85649 2.1076 5.00521 2.10104 3.93857C2.09447 2.87192 2.42001 2.0379 3.07766 1.43651C3.73517 0.813783 4.60792 0.499073 5.6959 0.492377C6.78387 0.485681 7.66043 0.789625 8.32556 1.40421C8.99055 1.99746 9.32633 2.82741 9.3329 3.89406C9.33946 4.9607 9.01406 5.81606 8.35667 6.46011C7.69929 7.10417 6.82661 7.42955 5.73863 7.43625ZM3.14424 33.0527C2.67491 33.0556 2.21606 33.0264 1.76767 32.9652C1.31942 32.9253 0.945305 32.7996 0.645331 32.5881C0.345488 32.3979 0.194122 32.0682 0.191234 31.5988C0.189527 31.3215 0.305086 31.0328 0.53791 30.7327C0.770865 30.4539 1.13267 30.313 1.62333 30.31C2.11399 30.307 2.64692 30.2397 3.22212 30.1082C3.81878 29.9978 4.22273 29.7713 4.43396 29.4287C4.58184 29.1931 4.68628 28.8298 4.74726 28.3387C4.80837 27.869 4.83689 27.3035 4.83282 26.6422C4.82638 25.5969 4.7339 24.4348 4.55535 23.1558C4.37668 21.8556 4.11314 20.6305 3.76472 19.4806C3.54693 18.7566 3.30767 18.0114 3.04695 17.245C2.80743 16.4571 2.60017 15.7117 2.42517 15.0088C2.25005 14.2845 2.16091 13.6664 2.15776 13.1544C2.15264 12.3224 2.37243 11.6384 2.81714 11.1023C3.28318 10.5661 3.86747 10.1785 4.57002 9.93949C5.27243 9.67916 5.98629 9.54676 6.71161 9.5423C8.29025 9.53258 9.60695 10.2925 10.6617 11.822C11.7165 13.3516 12.2527 15.5563 12.2705 18.4363C12.2853 20.8469 12.032 23.0245 11.5106 24.9691C10.9891 26.8923 10.2737 28.4967 9.36423 29.7824C8.47612 31.0678 7.45766 31.9701 6.30883 32.4892C5.79815 32.7057 5.25502 32.8477 4.67942 32.9152C4.12529 33.004 3.61356 33.0498 3.14424 33.0527ZM21.4835 26.9877C19.9902 26.9969 18.7398 26.6099 17.7323 25.8268C16.746 25.0222 15.9607 23.9496 15.3764 22.6092C14.7922 21.2688 14.367 19.778 14.1009 18.137C13.8561 16.4958 13.7286 14.8325 13.7182 13.1472C13.7051 11.014 14.0474 9.44381 14.7452 8.43683C15.443 7.42985 16.4426 6.92236 17.7439 6.91435C19.0025 6.9066 19.9975 7.39116 20.7289 8.36801C21.4603 9.34486 21.8325 10.8999 21.8456 13.0332C21.8506 13.8439 21.8449 14.6439 21.8284 15.4334C21.8331 16.2014 21.8167 17.0015 21.7792 17.8337C21.7229 19.0928 21.8035 20.0523 22.0209 20.7123C22.2382 21.351 22.5395 21.7865 22.925 22.0187C23.3103 22.2297 23.7162 22.3339 24.1429 22.3313C24.6549 22.3281 25.1124 22.1333 25.5153 21.7468C25.9183 21.3603 26.0649 20.9221 25.9552 20.4321C25.6927 19.367 25.4508 18.1951 25.2296 16.9165C25.0084 15.6378 24.8938 14.3585 24.886 13.0785C24.8728 10.9452 25.2152 9.37508 25.913 8.3681C26.6108 7.36112 27.6104 6.85363 28.9117 6.84562C30.1703 6.83787 31.1653 7.32242 31.8967 8.29927C32.628 9.27612 33.0003 10.8312 33.0134 12.9645C33.0193 13.9245 32.9618 14.9702 32.8407 16.1016C32.7196 17.2117 32.5557 18.3221 32.3492 19.4327C32.1639 20.5219 31.9674 21.5151 31.7595 22.4124C31.5516 23.2883 31.3745 23.9721 31.2282 24.4637C30.9984 25.2545 30.7141 25.8642 30.3754 26.293C30.0367 26.7217 29.5687 26.938 28.9714 26.9416C28.4167 26.945 27.9676 26.7665 27.624 26.4059C27.2804 26.024 26.9999 25.5137 26.7826 24.8751C26.674 24.5557 26.4383 24.3972 26.0757 24.3994C25.9263 24.4003 25.788 24.4545 25.6607 24.562C25.5545 24.6479 25.4485 24.7553 25.3426 24.8839C24.856 25.5483 24.2619 26.0639 23.5601 26.4309C22.8584 26.7979 22.1662 26.9835 21.4835 26.9877ZM48.121 26.8238C47.673 26.8265 47.3308 26.6793 47.0943 26.3821C46.8791 26.0847 46.7274 25.7017 46.6392 25.2329C46.5722 24.7426 46.5371 24.2415 46.5339 23.7295C46.5293 22.9828 46.5033 22.215 46.4558 21.4259C46.4294 20.6154 46.3289 19.88 46.1542 19.2197C45.9793 18.5381 45.6986 17.9958 45.3121 17.5929C44.9255 17.1686 44.3802 16.9586 43.6762 16.9629C42.9082 16.9677 42.3444 17.2165 41.9848 17.7094C41.625 18.1809 41.3835 18.8011 41.2602 19.5699C41.137 20.3386 41.046 21.1605 40.9874 22.0356C40.9288 22.9106 40.8058 23.7327 40.6186 24.5019C40.4316 25.3137 40.2004 25.8912 39.9252 26.2342C39.6712 26.5558 39.427 26.7386 39.1926 26.7827C38.9583 26.8482 38.7878 26.8812 38.6812 26.8819C38.2332 26.8846 37.8477 26.6417 37.5247 26.153C37.2017 25.6643 36.9208 25.09 36.6821 24.4301C36.4649 23.8128 36.2467 23.0141 36.0273 22.0341C35.8079 21.0541 35.5988 20.01 35.4 18.9019C35.2225 17.7937 35.0665 16.7066 34.9319 15.6407C34.8187 14.5747 34.7596 13.6364 34.7546 12.8258C34.7419 10.7565 35.1059 9.23954 35.8466 8.27496C36.6086 7.28892 37.5869 6.79222 38.7815 6.78487C39.5068 6.78041 40.1799 6.94694 40.8006 7.28445C41.4212 7.60064 41.9362 8.07748 42.3454 8.71497C42.4532 8.88498 42.5501 9.03372 42.6362 9.16119C42.7435 9.2672 42.8718 9.31975 43.0212 9.31883C43.1918 9.31778 43.3408 9.25286 43.468 9.12407C43.5952 8.99529 43.7967 8.80204 44.0724 8.54434C44.6663 7.98601 45.229 7.5452 45.7603 7.22193C46.313 6.89852 46.9413 6.73465 47.6453 6.73032C48.52 6.72494 49.3213 6.93334 50.0492 7.35554C50.7772 7.77773 51.3242 8.26504 51.6903 8.81746C51.7978 8.96614 51.8947 9.10421 51.9808 9.23168C52.0669 9.35916 52.1953 9.42237 52.366 9.42132C52.5366 9.42027 52.6856 9.35535 52.8128 9.22656C52.94 9.09778 53.1415 8.90453 53.4172 8.64683C54.0323 8.06703 54.6161 7.5941 55.1685 7.22803C55.721 6.86195 56.3705 6.67662 57.1172 6.67202C58.1625 6.66559 59.135 6.96894 60.0348 7.58208C60.9558 8.17376 61.6976 9.10788 62.2601 10.3844C62.8226 11.661 63.1101 13.3126 63.1226 15.3392C63.1313 16.7472 63.0011 18.1347 62.7322 19.5017C62.4632 20.8474 62.0973 22.0657 61.6347 23.1565C61.1934 24.2473 60.6975 25.125 60.1469 25.7897C59.6175 26.433 59.0861 26.7563 58.5528 26.7596C58.1688 26.7619 57.8581 26.5398 57.6207 26.0933C57.4046 25.6466 57.2929 24.8366 57.2857 23.6633C57.2814 22.9593 57.2555 22.2128 57.2079 21.4237C57.1818 20.6346 57.0812 19.8992 56.9064 19.2176C56.7528 18.5358 56.4828 17.9828 56.0961 17.5585C55.7094 17.1129 55.1747 16.8922 54.492 16.8964C53.8734 16.9002 53.4052 17.0844 53.0874 17.449C52.7908 17.7922 52.5802 18.2308 52.4555 18.7649C52.3308 19.2991 52.2061 19.8438 52.0815 20.3993C51.8743 21.3819 51.5816 22.3651 51.2037 23.3487C50.8471 24.3323 50.4041 25.1564 49.8749 25.821C49.3669 26.4854 48.7823 26.8197 48.121 26.8238ZM69.7345 32.6429C68.9665 32.6476 68.3994 32.3631 68.0332 31.7893C67.667 31.2156 67.3422 30.4389 67.0588 29.4593C66.819 28.6287 66.5675 27.6169 66.3041 26.4239C66.0623 25.252 65.8304 23.9841 65.6087 22.6201C65.4083 21.2559 65.2399 19.8916 65.1035 18.5271C64.967 17.1412 64.895 15.8403 64.8875 14.6244C64.8699 11.7657 65.2626 9.71528 66.0657 8.47298C66.8687 7.23069 68.0702 6.60461 69.6702 6.59477C71.3981 6.58413 72.7252 7.29064 73.6513 8.7143C73.759 8.88431 73.8558 9.02238 73.9418 9.12852C74.0277 9.21333 74.1453 9.25527 74.2946 9.25435C74.4653 9.2533 74.593 9.19918 74.6776 9.09199C74.7836 8.98467 74.9001 8.84529 75.0271 8.67384C75.5348 7.98803 76.1823 7.46137 76.9694 7.09385C77.7778 6.7262 78.6407 6.53956 79.558 6.53391C80.646 6.52721 81.5754 6.75616 82.3463 7.22076C83.1383 7.6639 83.7821 8.26795 84.2774 9.03291C84.7942 9.79775 85.1728 10.6594 85.4134 11.618C85.6538 12.5552 85.7771 13.5251 85.7833 14.5277C85.7917 15.8931 85.5976 17.2809 85.2009 18.6914C84.8042 20.1019 84.2363 21.4067 83.497 22.606C82.7577 23.8052 81.8677 24.7814 80.8269 25.5345C79.8074 26.2661 78.6683 26.6358 77.4097 26.6435C76.535 26.6489 75.7762 26.4082 75.1332 25.9215C74.9188 25.7522 74.7259 25.604 74.5545 25.4771C74.383 25.3501 74.2013 25.2872 74.0093 25.2884C73.6253 25.2908 73.3812 25.495 73.277 25.9009C73.1318 26.5632 73.0073 27.1399 72.9037 27.6313C72.8002 28.1439 72.6545 28.7315 72.4665 29.394C72.1743 30.4411 71.8272 31.2433 71.4253 31.8004C71.0447 32.3575 70.4811 32.6383 69.7345 32.6429ZM75.2083 22.529C75.891 22.5248 76.4551 22.3293 76.9008 21.9426C77.3676 21.5343 77.706 21.0629 77.9161 20.5283C78.1473 19.9722 78.2616 19.4808 78.259 19.0541C78.2552 18.4355 78.0388 17.9355 77.6098 17.5541C77.1806 17.1514 76.5287 16.9528 75.6541 16.9581C74.8647 16.963 74.2474 17.1801 73.802 17.6095C73.3565 18.0176 73.1371 18.755 73.1436 19.8216C73.1489 20.675 73.313 21.346 73.636 21.8346C73.9802 22.3019 74.5043 22.5333 75.2083 22.529Z" fill="white"/>
</svg>
